<?xml version="1.0" encoding="UTF-8"?>
<svg width="64px" height="64px" viewBox="0 0 64 64" version="1.1" xmlns="http://www.w3.org/2000/svg" xmlns:xlink="http://www.w3.org/1999/xlink">
    <!-- Generator: Sketch 51 (57462) - http://www.bohemiancoding.com/sketch -->
    <title>icone / delete</title>
    <desc>Created with Sketch.</desc>
    <defs></defs>
    <g id="icone-/-delete" stroke="none" stroke-width="1" fill="none" fill-rule="evenodd">
        <rect id="Rectangle" fill-rule="nonzero" x="0" y="0" width="64" height="64"></rect>
        <g id="delete" transform="translate(12.000000, 16.000000)">
            <path d="M11.6627429,1 C10.9731629,1 10.332223,1.35523939 9.96674632,1.94000212 L2.17299565,14.4100032 C1.56498887,15.382814 1.56498887,16.617186 2.17299565,17.5899968 L9.96674632,30.0599979 C10.332223,30.6447606 10.9731629,31 11.6627429,31 L36,31 C37.6568542,31 39,29.6568542 39,28 L39,4 C39,2.34314575 37.6568542,1 36,1 L11.6627429,1 Z" id="Rectangle" stroke="#252220" stroke-width="2"></path>
            <path d="M25,15 L29,15 C29.5522847,15 30,15.4477153 30,16 C30,16.5522847 29.5522847,17 29,17 L25,17 L25,21 C25,21.5522847 24.5522847,22 24,22 C23.4477153,22 23,21.5522847 23,21 L23,17 L19,17 C18.4477153,17 18,16.5522847 18,16 C18,15.4477153 18.4477153,15 19,15 L23,15 L23,11 C23,10.4477153 23.4477153,10 24,10 C24.5522847,10 25,10.4477153 25,11 L25,15 Z" id="Combined-Shape" fill="#252220" fill-rule="nonzero" transform="translate(24.000000, 16.000000) rotate(-315.000000) translate(-24.000000, -16.000000) "></path>
        </g>
    </g>
</svg>