<?xml version="1.0" encoding="utf-8"?>
<!-- Generator: Adobe Illustrator 16.0.0, SVG Export Plug-In . SVG Version: 6.00 Build 0)  -->
<!DOCTYPE svg PUBLIC "-//W3C//DTD SVG 1.1//EN" "http://www.w3.org/Graphics/SVG/1.1/DTD/svg11.dtd">
<svg version="1.1" id="Camada_1" xmlns="http://www.w3.org/2000/svg" xmlns:xlink="http://www.w3.org/1999/xlink" x="0px" y="0px"
	 width="264.143px" height="86.797px" viewBox="165.459 377.162 264.143 86.797"
	 enable-background="new 165.459 377.162 264.143 86.797" xml:space="preserve">
<g id="PROPORÇ_x2DC_AO_E_REGRAS_2_">
	<path fill="#FFFFFF" d="M250.587,409.132c-2.04,0-4.058,0.459-5.308,1.07v-12.656c-1.988,0.738-4.109,1.762-5.865,3.192
		c-0.919,0.738-1.197,1.482-1.197,2.575v31.229c1.889,0.791,5.69,1.482,9.336,1.482c9.237,0,14.539-5.639,14.539-13.801
		C262.115,414.161,258.342,409.132,250.587,409.132z M247.983,430.281c-0.738,0-1.889,0-2.68-0.279v-14.184
		c0.971-0.512,2.349-0.791,4.11-0.791c3.546,0,5.406,2.447,5.406,7.068C254.82,426.939,252.599,430.281,247.983,430.281z
		 M280.13,409.365c-3.365,0-5.308,1.302-7.115,3.65c-0.18-1.197-0.407-2.168-0.79-3.366c-0.687-0.227-1.89-0.279-2.907-0.279
		c-0.971,0-2.221,0.105-2.86,0.279v25.816c0.866,0.227,2.273,0.279,3.547,0.279c1.197,0,2.778-0.105,3.546-0.279v-12.604
		c0-5.028,2.627-7.702,6.15-7.702c0.64,0,1.709,0,2.349,0.105c0.407-1.657,0.459-4.058,0.104-5.691
		C281.712,409.493,280.689,409.365,280.13,409.365z M190.862,422.015v13.16c0,0.332,0.256,0.588,0.587,0.588h3.651v-16.888
		l-3.651,2.093C191.094,421.201,190.862,421.533,190.862,422.015z M194.559,389.693c-3.569,0-7.499,0.332-11.354,0.994
		c3.901-5.029,10.127-8.267,17.045-8.267c5.104,0,10.202,1.913,13.649,4.796c0.61,0.512,1.099,0.564,1.581,0.104
		c0.482-0.459,0.437-0.941-0.104-1.558c-4.487-5.203-11.074-8.726-18.853-8.598c-10.179,0.18-18.8,6.633-22.09,15.539
		c-3.012,0.942-5.768,2.063-8.215,3.418c-0.662,0.383-0.918,0.843-0.662,1.401c0.227,0.512,0.715,0.715,1.377,0.512
		c2.093-0.611,4.262-1.122,6.506-1.604c-0.228,1.174-0.384,2.401-0.384,3.674c-0.181,8.214,4.209,16.021,10.97,20.282
		c0.662,0.437,1.25,0.437,1.633-0.104c0.384-0.512,0.332-0.994-0.227-1.505c-4.284-3.854-6.685-9.592-6.685-15.254
		c0-2.86,0.563-5.639,1.656-8.138c2.244-0.18,4.668-0.332,7.348-0.332c17.376,0,32.043,5.738,32.043,13.243
		c0,3.802-4.819,7.604-10.563,10.156c-1.378,0.61-1.529,1.046-1.325,1.634c0.18,0.563,0.813,0.738,1.528,0.511
		c10.028-3.29,17.626-8.697,17.626-15.231C227.037,396.529,212.702,389.693,194.559,389.693z M201.575,415.155l-4.848,2.778v17.806
		h5.202c0.512,0,0.919-0.406,0.919-0.918v-19.033C202.855,415.103,202.162,414.824,201.575,415.155z M417.178,409.034
		c-7.935,0-12.37,5.406-12.37,13.573c0,8.268,4.668,13.447,12.37,13.447c7.988,0,12.424-5.309,12.424-13.447
		C429.602,414.388,425.137,409.034,417.178,409.034z M417.178,430.357c-3.93,0-5.127-3.191-5.127-7.756
		c0-4.44,1.197-7.859,5.127-7.859c4.059,0,5.18,3.319,5.18,7.859C422.358,427.375,421.027,430.357,417.178,430.357z
		 M348.193,409.034c-7.628,0-12.324,5.127-12.324,13.673c0,8.545,4.946,13.342,13.445,13.342c2.907,0,6.046-0.512,8.034-1.482
		c0.407-1.656,0.407-3.826,0-5.488c-2.627,0.738-4.848,1.197-7.295,1.197c-3.931,0-6.656-1.482-7.244-5.639h16.074
		c0.227-0.639,0.279-2.732,0.279-3.598C359.191,413.37,354.854,409.034,348.193,409.034z M342.838,419.463
		c0.512-3.139,2.401-5.029,5.255-5.029c3.191,0,4.441,2.168,4.569,5.029H342.838z M397.378,430.228
		c-3.546,0-5.865-2.777-5.865-7.701c0-4.668,1.89-7.703,5.918-7.703c1.709,0,2.906,0.279,4.517,0.918
		c0.459-1.604,1.303-3.418,2.5-4.947c-2.221-1.145-4.39-1.761-7.936-1.761c-7.807,0-12.324,5.534-12.324,13.522
		c0,8.266,4.616,13.521,12.604,13.521c2.906,0,5.587-0.512,7.755-1.709c-0.971-1.25-2.04-2.959-2.68-4.947
		C399.878,430.183,399.041,430.228,397.378,430.228z M293.187,409.034c-2.778-0.052-5.255,0.279-7.627,0.866
		c-0.459,1.604-0.406,3.93,0,5.586c2.959-0.686,4.616-0.738,6.505-0.738c3.651,0,5.407,1.482,5.407,4.517v0.279
		c-1.07-0.104-2.401-0.227-3.319-0.227c-6.046,0-11.226,2.168-11.226,7.987c0,6.559,4.668,8.779,11.452,8.779
		c3.191,0,6.655-0.564,9.87-1.529v-14.772C304.238,412.679,300.407,409.208,293.187,409.034z M297.448,430.228
		c-0.407,0.105-2.169,0.279-3.012,0.279c-3.237,0-5.028-0.971-5.028-3.238c0-2.266,1.762-3.191,5.028-3.191
		c1.07,0,2.349,0.105,3.012,0.182V430.228z M324.823,403.342v6.226c-1.25-0.331-2.575-0.407-3.697-0.407
		c-7.807,0-13.114,5.255-13.114,13.621c0,8.545,5.18,13.289,13.289,13.289c3.697,0,7.348-0.512,10.615-1.605v-36.891
		c-1.988,0.738-4.11,1.761-5.866,3.191C325.108,401.505,324.823,402.244,324.823,403.342z M324.823,429.898
		c-1.197,0.33-2.04,0.406-3.011,0.406c-4.668,0-6.505-3.086-6.505-7.527c0-4.948,1.837-7.988,6.429-7.988
		c1.378,0,2.221,0.18,3.087,0.407V429.898z M375.387,420.154l-2.86-1.197c-1.657-0.686-2.628-1.25-2.628-2.349
		c0-1.657,1.482-1.988,3.419-1.988c1.941,0,3.93,0.227,6.656,1.07c0.331-1.889,0.331-3.651,0-5.308
		c-1.71-0.918-4.901-1.378-7.703-1.378c-5.487,0-9.645,2.959-9.645,7.4c0,3.982,1.71,5.993,6.506,7.935l2.221,0.92
		c2.115,0.865,2.731,1.377,2.731,2.732c0,2.039-2.04,2.4-3.749,2.4c-2.86,0-5.028-0.564-7.755-1.529c-0.46,1.656-0.46,3.824,0,5.535
		c2.349,1.248,5.534,1.656,8.905,1.656c5.407,0,9.743-2.861,9.743-7.988C381.258,423.851,379.421,421.864,375.387,420.154z"/>
</g>
<g>
	<path fill="#FFFFFF" d="M245.64,447.82c4.291,0,7.18,2.512,7.18,7.789c0,0.938-0.436,1.459-1.372,1.459h-10.33
		c0.175,3.182,2.308,4.611,5.104,4.611c1.168,0,2.424-0.203,4.348-0.791l1.576-0.494l0.465,2.309l-1.547,0.494
		c-2.099,0.668-3.47,0.936-4.987,0.936c-4.61,0-7.731-2.686-7.731-8.109C238.345,450.296,241.728,447.82,245.64,447.82z
		 M245.582,450.005c-2.657,0-4.29,1.867-4.465,4.871h8.93C250.047,452.226,248.733,450.005,245.582,450.005z"/>
	<path fill="#FFFFFF" d="M265.807,463.953l-4.146-6.129l-4.174,6.129h-3.237l5.662-7.994l-5.546-7.936h3.296l4.087,5.924
		l3.854-5.924h3.268l-5.4,7.762l5.662,8.174h-3.325V463.953z"/>
	<path fill="#FFFFFF" d="M278.642,461.65c0.937,0,2.192-0.291,3.825-0.756l1.314-0.35l0.436,2.426l-1.284,0.377
		c-1.809,0.494-3.268,0.791-4.523,0.791c-4.29,0-7.237-2.512-7.237-8.145c0-5.314,2.947-8.139,7.237-8.139
		c1.256,0,2.715,0.32,4.523,0.82l1.284,0.377l-0.436,2.424l-1.314-0.377c-1.633-0.438-2.918-0.727-3.854-0.727
		c-3.006,0-4.581,1.836-4.581,5.633C274.032,459.812,275.608,461.65,278.642,461.65z"/>
	<path fill="#FFFFFF" d="M287.223,463.953v-21.945l2.831-0.553v22.498H287.223z"/>
	<path fill="#FFFFFF" d="M304.325,448.023h2.772v13.104c0,1.256-0.64,1.953-1.808,2.25c-2.482,0.639-3.971,0.697-5.075,0.697
		c-4.406,0-6.127-2.453-6.127-5.721v-10.33h2.744v10.068c0,2.012,0.878,3.529,3.586,3.529c0.878,0,1.809-0.059,3.913-0.582v-13.016
		H304.325z"/>
	<path fill="#FFFFFF" d="M319.091,455.144c2.772,0.465,4.349,1.896,4.349,4.262c0,3.238-2.687,4.756-5.721,4.756
		c-2.099,0-3.703-0.35-5.721-0.938l-1.284-0.406l0.465-2.365l1.343,0.406c1.721,0.494,3.412,0.936,5.191,0.936
		c1.604,0,3.006-0.639,3.006-2.25c0-1.109-0.698-1.836-2.512-2.098l-3.063-0.553c-2.773-0.465-4.349-1.924-4.349-4.289
		c0-3.238,2.686-4.756,5.721-4.756c2.099,0,3.674,0.348,5.69,0.965l1.314,0.377l-0.465,2.396l-1.372-0.408
		c-1.691-0.494-3.413-0.936-5.191-0.936c-1.604,0-3.006,0.641-3.006,2.25c0,1.111,0.698,1.809,2.512,2.127L319.091,455.144z"/>
	<path fill="#FFFFFF" d="M328.718,445.193c-1.082,0-1.75-0.697-1.75-1.809c0-1.109,0.668-1.809,1.75-1.809
		c1.081,0,1.749,0.699,1.749,1.809C330.467,444.49,329.799,445.193,328.718,445.193z M327.346,463.953v-15.936h2.772v15.936H327.346
		z"/>
	<path fill="#FFFFFF" d="M342.286,462.876c-0.291,0.877-1.082,1.371-2.099,1.371c-1.053,0-1.779-0.465-2.099-1.371l-5.134-14.854
		h3.035l4.29,13.162l4.465-13.162h2.976L342.286,462.876z"/>
	<path fill="#FFFFFF" d="M356.732,447.82c4.29,0,7.18,2.512,7.18,7.789c0,0.938-0.437,1.459-1.372,1.459h-10.33
		c0.175,3.182,2.308,4.611,5.109,4.611c1.169,0,2.425-0.203,4.349-0.791l1.575-0.494l0.466,2.309l-1.547,0.494
		c-2.099,0.668-3.471,0.936-4.987,0.936c-4.61,0-7.732-2.686-7.732-8.109C349.436,450.296,352.825,447.82,356.732,447.82z
		 M356.674,450.005c-2.657,0-4.29,1.867-4.465,4.871h8.929C361.138,452.226,359.824,450.005,356.674,450.005z"/>
</g>
</svg>
