<?xml version="1.0" encoding="utf-8"?>
<!-- Generator: Adobe Illustrator 16.0.0, SVG Export Plug-In . SVG Version: 6.00 Build 0)  -->
<!DOCTYPE svg PUBLIC "-//W3C//DTD SVG 1.1//EN" "http://www.w3.org/Graphics/SVG/1.1/DTD/svg11.dtd">
<svg version="1.1" id="Camada_1" xmlns="http://www.w3.org/2000/svg" xmlns:xlink="http://www.w3.org/1999/xlink" x="0px" y="0px"
	 width="377.001px" height="94.705px" viewBox="129.07 374.077 377.001 94.705"
	 enable-background="new 129.07 374.077 377.001 94.705" xml:space="preserve">
<g>
	<g>
		<path fill="#FFFFFF" d="M208.897,443.517c4.703,0,7.871,2.75,7.871,8.541c0,1.023-0.482,1.598-1.506,1.598h-11.324
			c0.192,3.488,2.529,5.053,5.599,5.053c1.279,0,2.656-0.221,4.767-0.867l1.727-0.545l0.512,2.527l-1.697,0.547
			c-2.302,0.738-3.808,1.023-5.471,1.023c-5.052,0-8.476-2.941-8.476-8.895C200.898,446.238,204.607,443.517,208.897,443.517z
			 M208.833,445.919c-2.913,0-4.703,2.045-4.896,5.342h9.79C213.728,448.349,212.286,445.919,208.833,445.919z"/>
		<path fill="#FFFFFF" d="M222.744,461.208h-3.006v-14.365c0-1.344,0.703-2.047,1.982-2.43c1.953-0.641,3.581-0.803,4.987-0.803
			c2.018,0,3.488,0.512,4.447,1.406c1.89-0.83,3.837-1.406,5.819-1.406c4.319,0,6.075,2.43,6.075,6.012v11.58h-3.006v-11.289
			c0-2.146-0.866-3.582-3.389-3.582c-1.599,0-2.721,0.385-4.157,0.93c0.291,0.703,0.448,1.506,0.448,2.43v11.518h-3.006v-11.289
			c0-2.146-0.831-3.582-3.424-3.582c-0.93,0-1.982,0.064-3.772,0.639V461.208L222.744,461.208z"/>
		<path fill="#FFFFFF" d="M246.893,467.162v-20.313c0-1.344,0.674-2.109,1.982-2.43c2.784-0.703,4.22-0.803,5.435-0.803
			c5.087,0,7.999,3.232,7.999,8.795c0,5.629-2.749,8.924-7.836,8.924c-1.186,0-2.366-0.221-4.575-0.895v6.139L246.893,467.162z
			 M259.304,452.447c0-3.645-1.506-6.174-5.215-6.174c-1.087,0-2.017,0.1-4.191,0.611v11.004c2.43,0.641,3.39,0.768,4.284,0.768
			C257.897,458.65,259.304,456.22,259.304,452.447z"/>
		<path fill="#FFFFFF" d="M274.529,446.367c-2.174,0-4.063,0.1-6.046,0.639v14.203h-3.04v-14.33c0-1.379,0.703-2.111,1.982-2.465
			c2.4-0.674,4.028-0.803,7.098-0.803v2.756H274.529z"/>
		<path fill="#FFFFFF" d="M283.836,443.517c4.703,0,7.871,2.75,7.871,8.541c0,1.023-0.482,1.598-1.506,1.598h-11.324
			c0.191,3.488,2.528,5.053,5.599,5.053c1.278,0,2.656-0.221,4.767-0.867l1.727-0.545l0.512,2.527l-1.698,0.547
			c-2.302,0.738-3.808,1.023-5.47,1.023c-5.052,0-8.476-2.941-8.476-8.895C275.843,446.238,279.551,443.517,283.836,443.517z
			 M283.772,445.919c-2.912,0-4.703,2.045-4.895,5.342h9.789C288.666,448.349,287.231,445.919,283.772,445.919z"/>
		<path fill="#FFFFFF" d="M293.579,457.912l2.389-1.377c0.262,0.773,0.738,1.383,1.441,1.83c0.704,0.447,1.541,0.674,2.518,0.674
			c0.93,0,1.691-0.18,2.284-0.545c0.594-0.367,0.896-0.92,0.896-1.664c0-0.412-0.128-0.76-0.378-1.063s-0.587-0.535-1.006-0.709
			c-0.418-0.176-0.895-0.338-1.441-0.488c-0.54-0.152-1.087-0.303-1.64-0.459c-0.552-0.152-1.099-0.355-1.633-0.605
			c-0.535-0.25-1.018-0.529-1.437-0.844c-0.418-0.313-0.761-0.732-1.017-1.262c-0.256-0.527-0.384-1.139-0.384-1.824
			c0-1.395,0.534-2.547,1.599-3.441c1.069-0.895,2.412-1.344,4.028-1.344c1.297,0,2.447,0.297,3.453,0.885
			c1.006,0.586,1.768,1.406,2.29,2.447l-2.319,1.313c-0.29-0.691-0.75-1.203-1.372-1.539c-0.622-0.338-1.308-0.512-2.058-0.512
			c-0.785,0-1.453,0.191-2.012,0.568c-0.558,0.385-0.837,0.92-0.837,1.605c0,0.412,0.128,0.773,0.384,1.076
			c0.256,0.301,0.599,0.539,1.018,0.709c0.424,0.168,0.906,0.33,1.447,0.482c0.541,0.15,1.087,0.303,1.64,0.459
			c0.552,0.15,1.093,0.354,1.628,0.604c0.534,0.25,1.005,0.529,1.424,0.844s0.756,0.738,1.006,1.279
			c0.256,0.535,0.378,1.15,0.378,1.842c0,1.447-0.559,2.611-1.681,3.482c-1.121,0.873-2.546,1.309-4.278,1.309
			c-1.552,0-2.877-0.338-3.982-1.018C294.852,459.941,294.056,459.039,293.579,457.912z"/>
		<path fill="#FFFFFF" d="M323.709,461.562l-1.57-0.895c-0.674-0.385-1.441-0.512-2.365-0.256l-1.187,0.291
			c-1.505,0.383-3.359,0.738-4.702,0.738c-3.68,0-5.854-1.826-5.854-4.895c0-4.129,3.453-5.279,7.36-5.279h4.476v-1.727
			c0-2.43-1.506-3.297-3.743-3.297c-1.535,0-3.488,0.42-5.436,0.961l-1.506,0.447l-0.482-2.594l1.441-0.412
			c2.238-0.674,4.221-1.088,6.139-1.088c3.645,0,6.493,1.664,6.493,5.918v8.703l2.081,1.25L323.709,461.562z M319.902,453.599
			h-4.796c-2.558,0-4.063,0.801-4.063,2.813c0,1.762,1.215,2.559,3.325,2.559c0.93,0,2.337-0.191,3.808-0.547l1.727-0.412V453.599z"
			/>
		<path fill="#FFFFFF" d="M326.255,457.912l2.39-1.377c0.262,0.773,0.738,1.383,1.441,1.83s1.54,0.674,2.518,0.674
			c0.93,0,1.691-0.18,2.284-0.545c0.593-0.367,0.896-0.92,0.896-1.664c0-0.412-0.128-0.76-0.378-1.063s-0.587-0.535-1.006-0.709
			c-0.419-0.176-0.896-0.338-1.441-0.488c-0.541-0.152-1.088-0.303-1.64-0.459c-0.553-0.152-1.099-0.355-1.634-0.605
			c-0.534-0.25-1.018-0.529-1.436-0.844c-0.419-0.313-0.762-0.732-1.018-1.262c-0.256-0.527-0.384-1.139-0.384-1.824
			c0-1.395,0.535-2.547,1.599-3.441c1.07-0.895,2.413-1.344,4.029-1.344c1.296,0,2.447,0.297,3.453,0.885
			c1.005,0.586,1.767,1.406,2.29,2.447l-2.319,1.313c-0.291-0.691-0.75-1.203-1.372-1.539c-0.622-0.338-1.308-0.512-2.058-0.512
			c-0.785,0-1.454,0.191-2.012,0.568c-0.559,0.385-0.837,0.92-0.837,1.605c0,0.412,0.128,0.773,0.384,1.076
			c0.256,0.301,0.599,0.539,1.017,0.709c0.425,0.168,0.907,0.33,1.448,0.482c0.54,0.15,1.087,0.303,1.639,0.459
			c0.553,0.15,1.093,0.354,1.628,0.604s1.006,0.529,1.425,0.844c0.418,0.314,0.755,0.738,1.005,1.279
			c0.256,0.535,0.378,1.15,0.378,1.842c0,1.447-0.558,2.611-1.68,3.482c-1.122,0.873-2.546,1.309-4.278,1.309
			c-1.553,0-2.878-0.338-3.982-1.018C327.523,459.941,326.732,459.039,326.255,457.912z"/>
		<path fill="#FFFFFF" d="M356.414,443.517c4.703,0,7.871,2.75,7.871,8.541c0,1.023-0.482,1.598-1.506,1.598h-11.324
			c0.192,3.488,2.529,5.053,5.599,5.053c1.279,0,2.656-0.221,4.767-0.867l1.727-0.545l0.512,2.527l-1.697,0.547
			c-2.302,0.738-3.808,1.023-5.471,1.023c-5.052,0-8.476-2.941-8.476-8.895C348.421,446.238,352.13,443.517,356.414,443.517z
			 M356.351,445.919c-2.913,0-4.703,2.045-4.896,5.342h9.79C361.245,448.349,359.81,445.919,356.351,445.919z"/>
		<path fill="#FFFFFF" d="M378.005,461.208h-3.04v-14.365c0-1.344,0.703-2.109,1.982-2.43c2.72-0.738,4.348-0.803,5.563-0.803
			c4.831,0,6.715,2.721,6.715,6.268v11.324h-3.04v-11.033c0-2.211-0.896-3.838-3.937-3.838c-0.959,0-1.953,0.064-4.255,0.639v14.238
			H378.005z"/>
		<path fill="#FFFFFF" d="M400.363,443.517c4.703,0,7.871,2.75,7.871,8.541c0,1.023-0.482,1.598-1.505,1.598h-11.324
			c0.191,3.488,2.528,5.053,5.598,5.053c1.279,0,2.657-0.221,4.767-0.867l1.727-0.545l0.512,2.527l-1.697,0.547
			c-2.302,0.738-3.808,1.023-5.47,1.023c-5.052,0-8.477-2.941-8.477-8.895C392.369,446.238,396.078,443.517,400.363,443.517z
			 M400.299,445.919c-2.912,0-4.703,2.045-4.895,5.342h9.789C405.194,448.349,403.758,445.919,400.299,445.919z"/>
		<path fill="#FFFFFF" d="M410.222,453.117c0-1.523,0.36-2.92,1.087-4.191c0.728-1.273,1.71-2.285,2.959-3.023
			c1.25-0.738,2.616-1.111,4.11-1.111c1.313,0,2.477,0.279,3.5,0.844c1.017,0.564,1.86,1.348,2.517,2.354v-2.777h2.779v15.322
			c0,1.211-0.232,2.297-0.692,3.268c-0.459,0.971-1.075,1.756-1.843,2.361c-0.767,0.604-1.633,1.063-2.604,1.383
			c-0.966,0.32-1.982,0.477-3.053,0.477c-1.79,0-3.337-0.338-4.639-1.006s-2.279-1.639-2.936-2.895l2.418-1.373
			c0.273,0.541,0.599,1,0.982,1.373c0.384,0.371,0.937,0.686,1.657,0.936s1.575,0.373,2.575,0.373c1.656,0,2.959-0.443,3.912-1.32
			c0.953-0.879,1.43-2.076,1.43-3.594v-2.271c-0.656,1.018-1.493,1.807-2.517,2.371s-2.186,0.844-3.5,0.844
			c-2.272,0-4.197-0.809-5.778-2.42C411.013,457.423,410.222,455.453,410.222,453.117z M413.001,453.117
			c0,1.604,0.546,2.947,1.639,4.027c1.094,1.082,2.448,1.623,4.063,1.623c1.616,0,2.965-0.541,4.053-1.623
			c1.087-1.08,1.633-2.424,1.633-4.027c0-1.594-0.546-2.938-1.633-4.018c-1.088-1.082-2.442-1.623-4.053-1.623
			c-1.609,0-2.964,0.541-4.063,1.623C413.541,450.179,413.001,451.523,413.001,453.117z"/>
		<path fill="#FFFFFF" d="M438.394,461.4c-5.052,0-8.221-3.262-8.221-8.924c0-5.691,3.297-8.924,8.349-8.924
			s8.255,3.232,8.255,8.924C446.771,458.203,443.446,461.4,438.394,461.4z M438.394,446.017c-3.36,0-5.116,2.367-5.116,6.459
			c0,4.191,1.89,6.465,5.244,6.465c3.354,0,5.15-2.303,5.15-6.465C443.672,448.384,441.753,446.017,438.394,446.017z
			 M438.103,440.931c-0.349,0.32-0.768,0.512-1.215,0.512c-0.831,0-1.25-0.674-1.25-1.186c0-0.355,0.128-0.703,0.482-1.059
			l2.528-2.4h4.221L438.103,440.931z"/>
		<path fill="#FFFFFF" d="M457.363,458.685c1.022,0,2.4-0.32,4.191-0.832l1.441-0.383l0.482,2.656l-1.407,0.418
			c-1.982,0.547-3.581,0.867-4.958,0.867c-4.703,0-7.936-2.75-7.936-8.924c0-5.818,3.232-8.924,7.936-8.924
			c1.377,0,2.976,0.355,4.958,0.896l1.407,0.412l-0.482,2.656l-1.441-0.418c-1.791-0.482-3.197-0.803-4.221-0.803
			c-3.296,0-5.022,2.018-5.022,6.174C452.305,456.667,454.031,458.685,457.363,458.685z"/>
		<path fill="#FFFFFF" d="M467.913,440.64c-1.186,0-1.918-0.768-1.918-1.982s0.738-1.982,1.918-1.982
			c1.186,0,1.918,0.768,1.918,1.982S469.099,440.64,467.913,440.64z M466.413,461.208v-17.463h3.04v17.463H466.413z"/>
		<path fill="#FFFFFF" d="M480.999,461.4c-5.052,0-8.221-3.262-8.221-8.924c0-5.691,3.297-8.924,8.349-8.924
			s8.255,3.232,8.255,8.924C489.376,458.203,486.051,461.4,480.999,461.4z M480.999,446.017c-3.36,0-5.116,2.367-5.116,6.459
			c0,4.191,1.89,6.465,5.244,6.465c3.354,0,5.15-2.303,5.15-6.465C486.278,448.384,484.359,446.017,480.999,446.017z"/>
		<path fill="#FFFFFF" d="M501.212,451.546c3.04,0.512,4.767,2.08,4.767,4.668c0,3.553-2.941,5.215-6.272,5.215
			c-2.302,0-4.063-0.385-6.267-1.023l-1.407-0.447l0.512-2.594l1.471,0.447c1.89,0.541,3.744,1.023,5.691,1.023
			c1.762,0,3.296-0.703,3.296-2.465c0-1.215-0.768-2.016-2.75-2.301l-3.359-0.605c-3.041-0.512-4.768-2.109-4.768-4.703
			c0-3.551,2.941-5.215,6.268-5.215c2.302,0,4.028,0.385,6.237,1.059l1.441,0.412l-0.512,2.623l-1.505-0.447
			c-1.854-0.541-3.744-1.023-5.691-1.023c-1.762,0-3.297,0.703-3.297,2.465c0,1.215,0.768,1.982,2.75,2.336L501.212,451.546z"/>
	</g>
	<g id="PROPORÇ_x2DC_AO_E_REGRAS_3_">
		<path fill="#FFFFFF" d="M214.198,406.226c-2.04,0-4.058,0.459-5.308,1.07V394.64c-1.988,0.738-4.109,1.761-5.865,3.191
			c-0.919,0.738-1.197,1.482-1.197,2.575v31.229c1.889,0.791,5.69,1.482,9.336,1.482c9.237,0,14.539-5.639,14.539-13.801
			C225.726,411.254,221.953,406.226,214.198,406.226z M211.594,427.375c-0.738,0-1.889,0-2.68-0.279v-14.184
			c0.971-0.512,2.349-0.791,4.11-0.791c3.546,0,5.406,2.447,5.406,7.069C218.431,424.033,216.21,427.375,211.594,427.375z
			 M243.741,406.458c-3.365,0-5.308,1.302-7.115,3.65c-0.181-1.197-0.407-2.168-0.791-3.366c-0.686-0.227-1.889-0.279-2.906-0.279
			c-0.971,0-2.221,0.104-2.86,0.279v25.817c0.866,0.227,2.273,0.279,3.546,0.279c1.198,0,2.779-0.105,3.547-0.279v-12.603
			c0-5.029,2.627-7.703,6.15-7.703c0.64,0,1.709,0,2.349,0.104c0.406-1.657,0.459-4.058,0.104-5.691
			C245.323,406.586,244.3,406.458,243.741,406.458z M154.473,419.108v13.161c0,0.332,0.256,0.588,0.587,0.588h3.651v-16.888
			l-3.651,2.093C154.705,418.294,154.473,418.625,154.473,419.108z M158.17,386.786c-3.569,0-7.499,0.332-11.354,0.994
			c3.9-5.028,10.127-8.267,17.045-8.267c5.104,0,10.202,1.913,13.649,4.796c0.61,0.512,1.099,0.564,1.581,0.105
			c0.482-0.459,0.437-0.942-0.104-1.558c-4.488-5.203-11.074-8.726-18.853-8.598c-10.179,0.18-18.8,6.633-22.091,15.539
			c-3.011,0.942-5.767,2.064-8.214,3.418c-0.663,0.384-0.918,0.843-0.663,1.401c0.228,0.512,0.716,0.715,1.378,0.512
			c2.093-0.61,4.262-1.122,6.505-1.604c-0.227,1.174-0.383,2.401-0.383,3.674c-0.181,8.214,4.208,16.021,10.969,20.283
			c0.663,0.436,1.25,0.436,1.634-0.105c0.384-0.511,0.332-0.994-0.227-1.505c-4.284-3.854-6.686-9.592-6.686-15.254
			c0-2.86,0.564-5.639,1.657-8.139c2.244-0.18,4.668-0.332,7.348-0.332c17.376,0,32.043,5.738,32.043,13.243
			c0,3.802-4.819,7.604-10.563,10.156c-1.378,0.61-1.529,1.046-1.325,1.634c0.18,0.564,0.813,0.738,1.528,0.511
			c10.028-3.29,17.626-8.696,17.626-15.23C190.649,393.623,176.314,386.786,158.17,386.786z M165.187,412.249l-4.849,2.779v17.806
			h5.203c0.512,0,0.919-0.406,0.919-0.918v-19.034C166.466,412.196,165.774,411.917,165.187,412.249z M380.789,406.127
			c-7.935,0-12.37,5.406-12.37,13.574c0,8.267,4.668,13.447,12.37,13.447c7.987,0,12.423-5.309,12.423-13.447
			C393.212,411.481,388.748,406.127,380.789,406.127z M380.789,427.451c-3.93,0-5.127-3.191-5.127-7.755
			c0-4.441,1.197-7.86,5.127-7.86c4.058,0,5.18,3.32,5.18,7.86C385.969,424.468,384.638,427.451,380.789,427.451z M311.804,406.127
			c-7.627,0-12.324,5.127-12.324,13.673s4.947,13.342,13.446,13.342c2.906,0,6.045-0.512,8.033-1.482
			c0.407-1.658,0.407-3.826,0-5.488c-2.628,0.738-4.848,1.197-7.295,1.197c-3.931,0-6.656-1.482-7.244-5.639h16.074
			c0.227-0.64,0.278-2.732,0.278-3.599C322.802,410.464,318.465,406.127,311.804,406.127z M306.449,416.556
			c0.512-3.139,2.401-5.029,5.255-5.029c3.192,0,4.441,2.168,4.569,5.029H306.449z M360.99,427.322
			c-3.546,0-5.865-2.777-5.865-7.702c0-4.668,1.889-7.703,5.918-7.703c1.709,0,2.906,0.279,4.517,0.918
			c0.459-1.604,1.302-3.418,2.5-4.947c-2.221-1.146-4.39-1.762-7.936-1.762c-7.808,0-12.324,5.534-12.324,13.521
			c0,8.267,4.616,13.523,12.604,13.523c2.906,0,5.586-0.512,7.755-1.711c-0.971-1.248-2.041-2.959-2.68-4.945
			C363.49,427.275,362.653,427.322,360.99,427.322z M256.798,406.127c-2.778-0.052-5.255,0.279-7.627,0.866
			c-0.459,1.604-0.407,3.93,0,5.586c2.959-0.686,4.616-0.738,6.505-0.738c3.651,0,5.406,1.482,5.406,4.517v0.279
			c-1.069-0.104-2.4-0.227-3.319-0.227c-6.046,0-11.225,2.168-11.225,7.987c0,6.557,4.668,8.777,11.452,8.777
			c3.191,0,6.656-0.563,9.87-1.527v-14.772C267.849,409.772,264.019,406.301,256.798,406.127z M261.06,427.322
			c-0.407,0.105-2.169,0.279-3.012,0.279c-3.238,0-5.028-0.971-5.028-3.238s1.762-3.191,5.028-3.191c1.069,0,2.349,0.104,3.012,0.18
			V427.322z M288.434,400.436v6.226c-1.249-0.331-2.575-0.407-3.697-0.407c-7.807,0-13.114,5.255-13.114,13.621
			c0,8.546,5.18,13.29,13.289,13.29c3.697,0,7.348-0.512,10.615-1.605v-36.891c-1.988,0.738-4.11,1.762-5.866,3.191
			C288.719,398.599,288.434,399.337,288.434,400.436z M288.434,426.992c-1.197,0.33-2.04,0.406-3.011,0.406
			c-4.668,0-6.505-3.088-6.505-7.528c0-4.947,1.837-7.987,6.429-7.987c1.378,0,2.221,0.18,3.087,0.407V426.992z M338.998,417.248
			l-2.86-1.198c-1.657-0.686-2.628-1.25-2.628-2.349c0-1.657,1.482-1.988,3.418-1.988c1.942,0,3.93,0.227,6.656,1.07
			c0.332-1.889,0.332-3.651,0-5.308c-1.709-0.918-4.9-1.377-7.702-1.377c-5.488,0-9.645,2.958-9.645,7.4
			c0,3.982,1.709,5.994,6.505,7.936l2.221,0.917c2.116,0.867,2.732,1.379,2.732,2.732c0,2.041-2.04,2.402-3.749,2.402
			c-2.86,0-5.029-0.564-7.755-1.529c-0.46,1.656-0.46,3.824,0,5.533c2.348,1.25,5.534,1.658,8.905,1.658
			c5.406,0,9.743-2.861,9.743-7.988C344.869,420.945,343.032,418.957,338.998,417.248z"/>
	</g>
</g>
</svg>
