<?xml version="1.0" encoding="utf-8"?>
<!-- Generator: Adobe Illustrator 16.0.0, SVG Export Plug-In . SVG Version: 6.00 Build 0)  -->
<!DOCTYPE svg PUBLIC "-//W3C//DTD SVG 1.1//EN" "http://www.w3.org/Graphics/SVG/1.1/DTD/svg11.dtd">
<svg version="1.1" id="Layer_1" xmlns="http://www.w3.org/2000/svg" xmlns:xlink="http://www.w3.org/1999/xlink" x="0px" y="0px"
	 width="693.209px" height="257.341px" viewBox="0 0 693.209 257.341" enable-background="new 0 0 693.209 257.341"
	 xml:space="preserve">
<g>
	<defs>
		<rect id="SVGID_1_" width="693.209" height="257.341"/>
	</defs>
	<clipPath id="SVGID_2_">
		<use xlink:href="#SVGID_1_"  overflow="visible"/>
	</clipPath>
	<path clip-path="url(#SVGID_2_)" fill="#040605" d="M107.13,46.158c-13.175,0-27.578,1.21-41.806,3.63
		c14.403-18.492,37.238-30.418,62.708-30.418c18.795,0,37.59,7.086,50.237,17.629c2.283,1.901,4.04,2.074,5.797,0.346
		c1.756-1.728,1.58-3.457-0.352-5.703c-16.511-19.184-40.751-32.146-69.383-31.627c-37.414,0.69-69.207,24.368-81.327,57.204
		C21.937,60.676,11.75,64.824,2.791,69.835c-2.459,1.383-3.337,3.112-2.459,5.185c0.878,1.901,2.635,2.593,5.094,1.901
		c7.729-2.246,15.633-4.147,23.889-5.876c-0.878,4.321-1.405,8.815-1.405,13.481c-0.703,30.244,15.457,58.932,40.4,74.66
		c2.459,1.556,4.567,1.556,5.972-0.347c1.405-1.9,1.23-3.629-0.878-5.529c-15.809-14.172-24.592-35.256-24.592-56.168
		c0-10.542,2.108-20.739,6.148-29.899c8.256-0.691,17.214-1.21,27.051-1.21c63.938,0,117.863,21.085,117.863,48.737
		c0,13.999-17.741,27.998-38.819,37.33c-5.094,2.247-5.621,3.802-4.919,6.049c0.703,2.074,2.987,2.765,5.621,1.901
		c36.888-12.099,64.816-31.974,64.816-55.996C226.573,71.391,173.878,46.158,107.13,46.158 M301.412,119.584
		c-12.161,0-24.893,2.85-33.443,5.699V257.34c4.37-1.705,9.312-3.987,12.729-7.219c1.901-1.711,3.04-3.797,3.04-6.837v-29.835
		c5.132,1.144,10.831,1.71,16.721,1.71c27.361,0,45.984-18.999,45.984-49.21C346.443,135.547,328.392,119.584,301.412,119.584
		 M299.891,202.432c-6.461,0-12.16-0.763-16.153-1.901v-65.745c6.271-1.71,12.161-2.468,17.102-2.468
		c19.003,0,29.644,12.35,29.644,33.632C330.484,190.271,317.942,202.432,299.891,202.432 M132.936,139.876l-18.93,10.896V215.7
		h20.25c1.879,0,3.404-1.524,3.404-3.405V142.32C137.66,139.64,135.071,138.66,132.936,139.876 M93.491,165.115v48.391
		c0,1.212,0.981,2.194,2.193,2.194h12.988v-61.86l-12.965,7.462C94.337,162.082,93.491,163.313,93.491,165.115 M557.354,119.584
		c-10.831,0-22.044,2.85-31.545,7.41c-6.648-4.937-15.201-7.41-25.651-7.41c-12.538,0-24.508,2.283-35.529,5.513v88.923
		c2.087,0.382,4.75,0.758,7.601,0.758c2.849,0,6.08-0.376,8.168-0.758v-79.235c5.321-1.52,10.831-2.468,18.813-2.468
		c17.292,0,25.083,9.31,25.083,30.02v51.684c2.088,0.382,4.747,0.758,7.596,0.758c2.854,0,6.08-0.376,8.173-0.758v-51.873
		c0-10.26-1.901-18.622-5.699-25.271c7.219-3.04,14.629-4.559,22.039-4.559c17.482,0,26.413,9.12,26.413,30.401v51.302
		c2.092,0.382,4.751,0.758,7.601,0.758c2.849,0,6.08-0.376,8.172-0.758v-51.873C598.587,134.027,582.624,119.584,557.354,119.584
		 M693.209,160.626c0-25.269-14.82-41.042-36.481-41.042c-24.889,0-40.661,19.379-40.661,48.262
		c0,29.263,16.339,47.504,44.463,47.504c10.26,0,20.71-2.088,27.171-4.941c0.382-1.897,0.572-3.989,0.572-6.081
		c0-2.087-0.19-4.179-0.572-6.081c-8.172,2.664-16.53,4.562-26.031,4.562c-18.999,0-29.454-12.161-30.401-31.922h61.375
		C693.02,168.608,693.209,163.285,693.209,160.626 M631.457,159.107c1.33-17.104,11.78-27.363,25.079-27.363
		c14.063,0,21.853,11.404,21.853,27.363H631.457z M426.817,121.104v92.916c2.087,0.382,4.751,0.758,7.6,0.758
		c2.851,0,6.081-0.376,8.168-0.758v-92.916c-2.087-0.381-4.751-0.758-7.6-0.758C432.135,120.346,428.904,120.723,426.817,121.104
		 M434.985,88.424c-3.041,0-6.271,0-8.549,0.568c-0.191,2.282-0.382,5.322-0.382,7.791c0,2.468,0.19,5.508,0.382,7.981
		c2.091,0.382,5.132,0.567,8.172,0.567s6.457-0.185,8.548-0.567c0.191-2.473,0.382-5.513,0.382-7.981
		c0-2.469-0.19-5.509-0.382-7.791C441.065,88.424,438.025,88.424,434.985,88.424 M404.964,120.346
		c-10.068,0-18.618,4.751-25.08,13.681c-0.189-4.374-0.762-8.93-1.52-12.923c-1.9-0.571-4.56-0.758-6.651-0.758
		c-2.469,0-4.937,0.377-6.839,0.758v92.916c2.088,0.382,4.751,0.758,7.602,0.758c2.849,0,6.079-0.376,8.167-0.758v-52.441
		c0-16.912,10.641-28.313,24.131-28.313c2.473,0,5.322,0,7.224,0.57c0.567-2.281,0.758-4.75,0.758-6.842
		c0-1.897-0.19-3.989-0.566-5.89C409.905,120.723,407.438,120.346,404.964,120.346"/>
</g>
</svg>
